<svg width="40" height="41" viewBox="0 0 40 41" fill="none" xmlns="http://www.w3.org/2000/svg">
<path d="M17.5 35.3333C10.4167 34.0833 5 27.9167 5 20.5C5 12.25 11.75 5.5 20 5.5C28.25 5.5 35 12.25 35 20.5C35 27.9167 29.5833 34.0833 22.5 35.3333L21.6667 34.6667H18.3333L17.5 35.3333Z" fill="url(#paint0_linear_2_484)"/>
<path d="M25.8333 24.6663L26.5 20.4997H22.5V17.583C22.5 16.4163 22.9167 15.4997 24.75 15.4997H26.6667V11.6663C25.5833 11.4997 24.4167 11.333 23.3333 11.333C19.9167 11.333 17.5 13.4163 17.5 17.1663V20.4997H13.75V24.6663H17.5V35.2497C18.3333 35.4163 19.1667 35.4997 20 35.4997C20.8333 35.4997 21.6667 35.4163 22.5 35.2497V24.6663H25.8333Z" fill="white"/>
<defs>
<linearGradient id="paint0_linear_2_484" x1="20" y1="34.4617" x2="20" y2="5.5" gradientUnits="userSpaceOnUse">
<stop stop-color="#0062E0"/>
<stop offset="1" stop-color="#19AFFF"/>
</linearGradient>
</defs>
</svg>
